<svg width="403" height="1006" fill="none" xmlns="http://www.w3.org/2000/svg"><path d="M318.156 279.009l-20.785-.002c-1.55-.002-3.036-.657-4.132-1.82-1.096-1.163-1.712-2.74-1.714-4.384l.006-51.006c.002-1.645.618-3.221 1.714-4.384 1.096-1.163 2.582-1.817 4.132-1.819l20.785.003c1.55.002 3.036.656 4.132 1.819 1.096 1.163 1.712 2.74 1.714 4.385l-.005 51.005c-.002 1.645-.619 3.222-1.715 4.385-1.096 1.162-2.582 1.816-4.132 1.818z" fill="#F7F7F7"/><path d="M384.991 1004.98l-160.937-.02c-4.428 0-8.673-1.88-11.803-5.215-3.131-3.336-4.892-7.86-4.896-12.578l.071-692.994c.005-4.718 1.767-9.241 4.898-12.577 3.132-3.336 7.377-5.212 11.805-5.217l161.115.018c4.428.006 8.673 1.883 11.803 5.22 3.131 3.337 4.892 7.86 4.896 12.578l-.071 692.994c-.005 4.718.718 11.55-2.413 14.891-3.131 3.33-10.041 2.9-14.468 2.9z" fill="#4D4B51" fill-opacity=".3"/><path d="M358.648 772.873l-124.111-.014c-3.411-.004-6.681-1.277-9.092-3.538-2.412-2.262-3.768-5.329-3.772-8.527l.048-469.747c.005-3.198 1.362-6.264 3.774-8.525s5.682-3.533 9.093-3.536l124.111.014c3.411.004 6.681 1.277 9.092 3.538 2.412 2.262 3.768 5.328 3.772 8.527l-.048 469.747c-.004 3.198-1.361 6.264-3.774 8.525-2.412 2.261-5.682 3.533-9.093 3.536z" fill="#F2F2F2"/><path d="M300.064 215.595l9.101.001-.321-45.985v-.018L307.96.999c-.914 1.88-2.253 2.853-3.324 2.853-1.071 0-1.581-.97-2.495-2.852l-1.747 168.592v.018l-.33 45.985z" fill="#BCBCBC" fill-opacity=".43"/><path d="M102.727 351.88l-.066 650.09a3.003 3.003 0 002.999 3l133.2.01a3 3 0 003.001-3l.067-655.566.016-161.282.001-8.214c.001-2.693-3.272-4.022-5.15-2.092L103.581 311.739a3 3 0 00-.85 2.092l-.001 12.769-.003 25.28z" fill="#E1E1E1" fill-opacity=".5"/><path d="M175.779 637.028l-.038 364.942c0 1.66-1.343 3-3 3l-133.2-.01c-1.657 0-3-1.34-3-3l.038-368.036.01-90.865v-3.586c0-2.311 2.504-3.754 4.503-2.595l133.192 77.161a2.997 2.997 0 011.497 2.596l-.001 6.151-.001 14.242z" fill="#E1E1E1" fill-opacity=".3"/><path d="M154.874 859.851l-.015 142.119c0 1.66-1.343 3-3 3l-148.86-.02c-1.657 0-3-1.34-3-3l.015-143.335.004-35.838v-1.222a3 3 0 012.154-2.878l148.864-43.774a2.999 2.999 0 013.846 2.878l-.007 76.452-.001 5.618z" fill="#E1E1E1" fill-opacity=".25"/><path d="M157.524 475.332l19.14.002.004-41.45-19.14-.002-.004 41.45zm-.006 58.951l19.14.002.005-42.371-19.14-.002-.005 42.371zm-.006 67.24l19.14.002.005-42.371-19.14-.002-.005 42.371zm-.007 66.322l19.14.003.004-42.372-19.14-.002-.004 42.371z" fill="#fff"/><path d="M306.049 279.008l-19.505-.003c-1.455-.002-2.849-.656-3.877-1.819-1.029-1.163-1.607-2.74-1.608-4.385l.005-51.006c.002-1.644.58-3.221 1.609-4.384 1.028-1.163 2.423-1.817 3.877-1.819l19.506.003c1.454.002 2.848.656 3.877 1.819 1.028 1.163 1.606 2.74 1.608 4.385l-.005 51.006c-.002 1.645-.581 3.221-1.609 4.384-1.029 1.163-2.424 1.817-3.878 1.819z" fill="#E4E4E4" fill-opacity=".78"/><path d="M264.96 383.23l-36.504-.004c-1.273-.001-2.494-.38-3.394-1.053-.901-.673-1.407-1.586-1.408-2.537l.004-41.64c.001-.952.508-1.864 1.408-2.537.901-.673 2.122-1.051 3.395-1.052l36.504.004c1.273.001 2.494.38 3.395 1.053.9.673 1.406 1.585 1.408 2.537l-.004 41.64c-.002.952-.509 1.864-1.409 2.537-.901.673-2.122 1.051-3.395 1.052zm65.523.01l-34.437-.004c-1.202-.002-2.353-.38-3.203-1.053-.849-.673-1.327-1.586-1.328-2.538l.004-41.639c.002-.952.48-1.864 1.329-2.537.85-.673 2.001-1.052 3.203-1.052l34.437.004c1.202.001 2.353.379 3.203 1.052.849.673 1.327 1.586 1.328 2.538l-.004 41.639c-.002.952-.48 1.865-1.329 2.537-.85.673-2.001 1.052-3.203 1.053zm-65.529 74.6l-36.503-.004c-1.274-.001-2.495-.373-3.395-1.033-.9-.66-1.407-1.556-1.408-2.489l.004-40.855c.002-.933.508-1.828 1.409-2.489.9-.66 2.121-1.031 3.394-1.032l36.504.004c1.274.001 2.494.373 3.395 1.033.9.661 1.407 1.556 1.408 2.49l-.004 40.854c-.002.934-.508 1.829-1.409 2.489-.9.66-2.121 1.031-3.395 1.032zm65.522.012l-34.438-.004c-1.201-.002-2.353-.373-3.202-1.033-.85-.661-1.328-1.556-1.329-2.49l.004-40.854c.002-.934.48-1.829 1.329-2.489.85-.66 2.002-1.031 3.203-1.032l34.437.004c1.202.001 2.354.372 3.203 1.033.849.66 1.327 1.555 1.328 2.489l-.004 40.854c-.001.934-.479 1.829-1.329 2.489-.849.66-2.001 1.032-3.202 1.033zm-65.532 76.443l-36.503-.005c-1.274-.001-2.495-.38-3.395-1.053-.9-.673-1.407-1.585-1.408-2.537l.004-41.64c.002-.951.508-1.864 1.409-2.537.9-.672 2.121-1.051 3.395-1.052l36.503.004c1.274.002 2.495.38 3.395 1.053.9.673 1.407 1.586 1.408 2.538l-.004 41.639c-.002.952-.508 1.864-1.409 2.537-.9.673-2.121 1.052-3.395 1.053zm65.524.009l-34.438-.004c-1.201-.001-2.353-.38-3.202-1.053-.85-.673-1.327-1.585-1.329-2.537l.005-41.64c.001-.952.479-1.864 1.328-2.537.85-.673 2.002-1.051 3.203-1.052l34.438.004c1.201.001 2.353.38 3.202 1.053.85.673 1.327 1.585 1.329 2.537l-.005 41.64c-.001.952-.479 1.864-1.329 2.537-.849.673-2.001 1.051-3.202 1.052zm-65.531 75.522l-36.504-.004c-1.274-.002-2.494-.38-3.395-1.053-.9-.673-1.407-1.586-1.408-2.538l.004-41.639c.002-.952.509-1.864 1.409-2.537.901-.673 2.121-1.052 3.395-1.052l36.504.004c1.273.001 2.494.38 3.394 1.053.901.673 1.407 1.585 1.408 2.537l-.004 41.64c-.001.951-.508 1.864-1.409 2.537-.9.672-2.121 1.051-3.394 1.052zm65.523.009l-34.438-.004c-1.201-.001-2.353-.38-3.202-1.053-.85-.673-1.327-1.585-1.329-2.537l.005-41.64c.001-.951.479-1.864 1.329-2.537.849-.672 2.001-1.051 3.202-1.052l34.438.004c1.201.001 2.353.38 3.202 1.053.85.673 1.327 1.586 1.329 2.537l-.005 41.64c-.001.952-.479 1.864-1.328 2.537-.85.673-2.002 1.051-3.203 1.052zm-65.529 75.521l-36.504-.004c-1.273-.002-2.494-.373-3.395-1.034-.9-.66-1.406-1.555-1.408-2.489l.005-40.854c.001-.934.508-1.829 1.408-2.489.901-.66 2.122-1.031 3.395-1.032l36.504.004c1.273.001 2.494.373 3.394 1.033.901.66 1.407 1.556 1.409 2.489l-.005 40.854c-.001.934-.508 1.829-1.408 2.489-.901.661-2.122 1.032-3.395 1.033zm65.521.011l-34.437-.004c-1.202-.001-2.353-.372-3.203-1.033-.849-.66-1.327-1.555-1.328-2.489l.004-40.854c.001-.934.479-1.829 1.329-2.489.849-.66 2.001-1.032 3.203-1.033l34.437.004c1.201.002 2.353.373 3.202 1.033.85.661 1.328 1.556 1.329 2.49l-.004 40.854c-.002.934-.48 1.829-1.329 2.489-.85.66-2.002 1.031-3.203 1.032z" fill="#fff"/><path d="M387.761 570.812a3 3 0 002.043-2.842l.001-10.92a3 3 0 00-1.356-2.509l-52.644-34.485a3.001 3.001 0 00-1.644-.49l-167.552-.019a3 3 0 00-3.001 2.999l-.003 32.184a3 3 0 001.723 2.715l108.258 50.948a3 3 0 002.235.129l111.94-37.71z" fill="#E4BF80" fill-opacity=".5"/><path d="M163.607 539.068v-4.749l.001-9.06v-2.714a3 3 0 013.001-3l36.078.005a3 3 0 012.089.847l37.487 36.389c.168.162.354.305.555.425l13.59 8.092a3.002 3.002 0 011.431 2.123l23.155 151.154c.03.19.04.382.033.573L269.83 1002.1a3 3 0 01-2.998 2.88l-100.273-.01c-1.657 0-3-1.34-3-3l.046-443.45.002-19.452z" fill="#4D4B51" fill-opacity=".3"/><path d="M127.075 474.408l19.14.002.004-42.371-19.14-.002-.004 42.371zm30.455-57.107l19.14.002.004-42.372-19.14-.002-.004 42.372zm-30.449-.924l19.14.002.004-42.371-19.14-.003-.004 42.372zm30.455-57.106l19.14.002.009-90.269-19.142 23.293-.007 66.974zm-30.449-.926l19.14.003.006-58.952-19.142 18.863-.004 40.086zm-.018 174.09l19.14.003.004-41.451-19.14-.002-.004 41.45zm-.014 116.063l19.14.002.005-42.371-19.14-.002-.005 42.371zm.008-58.031l19.14.002.004-41.45-19.14-.003-.004 41.451zm-.025 235.806l19.14.002.004-42.371-19.14-.002-.004 42.371zm.006-58.951l19.14.002.004-42.371-19.14-.002-.004 42.371zm-.012 116.982l19.14.003.004-42.372-19.14-.002-.004 42.371zm-.012 110.532l19.14.002.01-94.875-19.14-.002-.01 94.875zm.031-287.387l19.14.002.005-42.371-19.14-.002-.005 42.371z" fill="#fff"/><path d="M244.516 558.242l144.599 9.323L401.94 1005l-157.47-.02.046-446.738z" fill="#F7F7F7" fill-opacity=".9"/><path d="M23.337 975.986l374.333 12.65 4.331 16.394-383-.04 4.335-29.004z" fill="#F7F7F7" fill-opacity=".5"/><path d="M127.501 992.5l252.5-16.498 22 10.498v18.53l-401.569-.04 127.069-12.49z" fill="#CFCFCF"/><path d="M.431 1004.99l.069.01v-.01l401.5.04v-23.623l-21.999-13.384L.431 995l.069 9.99H.43z" fill="#CFCFCF" fill-opacity=".2"/><path d="M191.001 995.37l.003-25.371 27 .003-.003 25.371-24.752-.003h-2.248z" fill="#F7F7F7" fill-opacity=".5"/><path d="M207.973 572.053l.001-7.369 10.44.002-.001 7.368-9.57-.001h-.87zm.87 6.448l9.571.001-.001 9.211-10.44-.001.001-9.211h.869zm-18.268-13.817l9.57.002-.001 7.368-9.57-.001.001-7.369zm0 13.817l9.57.001-.001 9.211-9.57-.001.001-9.211zm17.394 40.528l.001-8.29 10.44.001-.001 8.29-9.57-.001h-.87zm.871 6.448l9.57.002-.001 8.29-10.44-.002.001-8.29h.87zm-18.269-14.738l9.57.001-.001 8.29-9.57-.001.001-8.29zm-.002 14.738l9.57.002-.001 8.29-9.57-.002.001-8.29zm17.396 39.61l.001-9.211 10.44.001-.001 9.211-9.57-.001h-.87zm.869 6.447l9.57.001v7.369l-10.44-.001v-7.369h.87zm-18.267-15.658l9.57.001-.001 9.211-9.57-.001.001-9.211zm-.004 15.658l9.57.001-.001 7.369-9.57-.001.001-7.369zm17.396 40.529l.001-10.133 10.44.002-.001 10.132-9.57-.001h-.87zm.869 5.526l9.57.001-.001 10.132-10.44-.001.001-10.132h.87zm-18.267-15.658l9.57.001-.001 10.132-9.57-.001.001-10.132zm-.002 15.658l9.57.001-.001 10.132-9.57-.001.001-10.132zm17.397 40.529v-7.369l10.44.001v7.369l-9.571-.001h-.869zm.868 6.449l9.571.001-.001 9.212-10.44-.002.001-9.211h.869zm-18.269-13.818l9.57.001-.001 7.369-9.57-.001.001-7.369zm0 13.818l9.57.001-.001 9.212-9.57-.002.001-9.211zm17.395 40.528l.001-8.29 10.44.002-.001 8.29-9.571-.001-.869-.001zm.87 6.447l9.571.001-.001 8.29-10.44-.001.001-8.29h.869zm-18.269-14.736l9.57.001-.001 8.29-9.57-.001.001-8.29zm0 14.736l9.57.001-.001 8.29-9.57-.001.001-8.29zm17.395 39.609l.001-9.211 10.44.001-.001 9.212-9.571-.002h-.869zm.868 7.369l9.571.001-.001 6.448-10.44-.001.001-6.448h.869zm-18.267-16.58l9.57.001-.001 9.212-9.57-.002.001-9.211zm-.002 16.58l9.57.001v6.448l-9.57-.001v-6.448zm17.397 39.609l.001-10.132 10.44.001-.001 10.132-9.571-.001h-.869zm.866 5.526l9.571.001-.001 10.133-10.44-.002.001-10.132h.869zm-18.267-15.658l9.57.001-.001 10.132-9.57-.001.001-10.132zm-.002 15.658l9.57.001-.001 10.133-9.57-.002.001-10.132zm17.397 40.528l.001-8.29 10.44.002-.001 8.29-9.571-.002h-.869zm.868 7.369l9.571.001-.001 7.369-10.44-.002.001-7.368h.869zm-18.269-15.659l9.57.002v8.29l-9.57-.002v-8.29zm0 15.659l9.57.001v7.369l-9.57-.001v-7.369z" fill="#F7F7F7"/><path d="M193.141 994.843l.002-21.186 23.49.003-.002 21.186-21.534-.003h-1.956z" fill="#F7F7F7" fill-opacity=".5"/><path d="M262.303 582.329l94.791 6.117a1.487 1.487 0 01-.096 2.968l-94.825-.011a2 2 0 01-1.999-2v-5.078a2 2 0 012.129-1.996zm-.133 21.049l94.31.01a2 2 0 012 2.001v5.211a2 2 0 01-2 2l-94.31-.011a2 2 0 01-2-2.001v-5.211a2 2 0 012-1.999zm-.001 22.107l94.31.011a2 2 0 011.999 2v5.211a2 2 0 01-2 2l-94.31-.011a2 2 0 01-2-2v-5.211a2 2 0 012.001-2zm-.002 21.186l94.31.01a2 2 0 011.999 2.001v5.211a2 2 0 01-2 2l-94.31-.011a2 2 0 01-2-2.001v-5.211a2 2 0 012.001-1.999zm-.02 192.513l94.31.011a2 2 0 012 2l-.001 5.211a2 2 0 01-2 2l-94.31-.011a2 2 0 01-2-2l.001-5.211a2 2 0 012-2zm-.002 20.266l94.31.011a2 2 0 012 2l-.001 6.132a2 2 0 01-2 2l-94.31-.011a2 2 0 01-2-2l.001-6.132a2 2 0 012-2zm-.002 22.105l94.31.011a2 2 0 012 2l-.001 6.133c0 1.104-.895 2-2 1.999l-94.31-.01a2.002 2.002 0 01-2-2.001l.001-6.132a2 2 0 012-2zm-.002 21.186l94.31.011a2 2 0 012 2v4.29a2 2 0 01-2.001 2l-94.31-.011a2 2 0 01-1.999-2v-4.29a2 2 0 012-2zm.024-234.885l94.31.011a2 2 0 011.999 2v5.211a2 2 0 01-2 2l-94.31-.011a2 2 0 01-2-2v-5.211a2 2 0 012.001-2zm-.002 22.108l94.31.01a2 2 0 011.999 2.001v5.211a2 2 0 01-2 2l-94.31-.011a2 2 0 01-2-2.001v-5.211a2 2 0 012.001-1.999zm-.002 20.265l94.31.011a2 2 0 011.999 2v6.132a2 2 0 01-2 2l-94.31-.011a2 2 0 01-2-2l.001-6.132a2 2 0 012-2zm-.002 21.186l94.31.011a2 2 0 012 2l-.001 5.211a2 2 0 01-2 2l-94.31-.011a2 2 0 01-2-2l.001-5.212a2 2 0 012-1.999zm-.004 22.105l94.31.011a2 2 0 012 2l-.001 5.211a2 2 0 01-2 2l-94.31-.011a2 2 0 01-2-2l.001-5.211a2 2 0 012-2zm-.002 21.186l94.31.011a2 2 0 012 2l-.001 5.211a2 2 0 01-2 2l-94.31-.011a2 2 0 01-2-2l.001-5.212a2 2 0 012-1.999zm-.002 21.185l94.31.011a2 2 0 012 2l-.001 5.211a2 2 0 01-2 2l-94.31-.011a2 2 0 01-2-2l.001-5.211a2 2 0 012-2zm-.002 22.108l94.31.011a2 2 0 012 2l-.001 5.211a2 2 0 01-2 2l-94.31-.011a2 2 0 01-2-2l.001-5.212a2 2 0 012-1.999zm53.058 121.594l41.24.004a2 2 0 012 2.001l-.005 48.503a2 2 0 01-2 2l-41.24-.005a2 2 0 01-2-2l.005-48.504a2 2 0 012-1.999z" fill="#E3D0AA" fill-opacity=".5"/><path d="M315.826 940.442l24.709 8.036a2 2 0 011.382 1.903l-.004 39.716a2 2 0 01-2 2l-24.71-.003a2 2 0 01-2-2l.005-47.75a2 2 0 012.618-1.902z" fill="#E3D0AA" fill-opacity=".5"/><path d="M260.931 964.455a.797.797 0 01-.797-.797l.001-7.335a2 2 0 012-2l5.57.001a2 2 0 012 2l-.001 6.132a2 2 0 01-2 2l-6.773-.001zm.003-24.87l6.773.001a2 2 0 012 2l-.001 4.29a2 2 0 01-2 2l-5.57-.001a2 2 0 01-2-2l.001-5.493c0-.44.357-.797.797-.797zm15.99 14.738l7.31.001a2 2 0 012 2v6.132a2 2 0 01-2.001 2l-7.31-.001c-1.104 0-2-.895-1.999-2v-6.132a2 2 0 012-2zm.002-14.738l7.31.001a2 2 0 012 2v4.29a2 2 0 01-2.001 2l-7.31-.001a2 2 0 01-1.999-2v-4.29a2 2 0 012-2z" fill="#E4D0A9" fill-opacity=".5"/><path d="M146.879 785.229l.004-41.855 9.734 97.219-9.761 164.377h-2.436l2.459-219.741z" fill="#606060" fill-opacity=".5"/><path d="M124.431 799.452c-.173 33.067 25.785 59.983 25.785 59.983s26.24-26.695 26.414-59.761c.173-33.067-25.785-59.984-25.785-59.984s-26.24 26.695-26.414 59.762z" fill="#E3D0AA" fill-opacity=".9"/></svg>