<svg width="53" height="31" fill="none" xmlns="http://www.w3.org/2000/svg"><path d="M44.903 16.374l4.797-1.058 1.677-3.861s-1.77-1.885-3.26-3.448c-1.49-1.563-2.19-3.172-4.751-4.597-2.562-1.425-5.45-.92-6.428-.46-.978.46-2.794 1.287-3.82 4.23-1.024 2.942.56 6.206 1.259 7.401.698 1.195 10.526 14.71 10.526 14.71h-4.378s-6.614-6.436-11.552-9.93c-4.937-3.493-7.871-4.367-14.16-8.136-6.287-3.77-8.057-7.493-8.057-7.493H21.24s4.13 0 6.335 1.793c2.206 1.792 3.447 4.367 1.723 7.125-1.723 2.758-6.674 2.666-6.674 2.666H7.874" stroke="#CEAC6A" stroke-width="1.9"/><path d="M42.71 3.226s-4.424 2.022-3.492 5.24c.931 3.218 6.614 6.252 4.844 10.803-1.77 4.552-5.73 5.425-10.015 4.643-4.285-.781-9.595-2.79-14.206-.735-4.611 2.055-6.753 6.16-6.753 6.16H8.942l4.891-13.791h1.025l8.57 13.79h5.17l-1.444-2.62" stroke="#CEAC6A" stroke-width="1.9"/><path d="M7.826 14.396h1.956v1.84H6.15l1.677-1.84z" fill="#CEAC6A"/><path d="M7.826 14.396h1.956v1.84H6.15l1.677-1.84zm20.099 11.777l.911 1.76-1.659.837-1.653-3.193 2.4.596z" fill="#CEAC6A"/><path d="M27.925 26.173l.911 1.76-1.659.837-1.653-3.193 2.4.596zM1.63 14.396h3.866l-1.677 1.84H0l1.63-1.84z" fill="#CEAC6A"/><path d="M1.63 14.396h3.866l-1.677 1.84H0l1.63-1.84z" fill="#CEAC6A"/></svg>