<svg width="17" height="17" fill="none" xmlns="http://www.w3.org/2000/svg"><path d="M16.654 4.563a2.628 2.628 0 00-1.847-1.845C13.53 2.369 9.01 2.359 8.5 2.359c-.51 0-5.028.01-6.3.344l-.008.002a2.683 2.683 0 00-1.846 1.86l-.001.004C.004 5.862 0 8.395 0 8.502c0 .108.004 2.654.346 3.937a2.628 2.628 0 001.849 1.847c1.287.348 5.795.359 6.305.359.51 0 5.028-.01 6.3-.345h.004a2.628 2.628 0 001.851-1.852c.34-1.286.345-3.799.345-3.931 0-.127.008-2.661-.346-3.954zm-.982 3.952c0 .682-.054 2.656-.3 3.593-.12.44-.469.789-.91.908-.941.246-4.622.3-5.962.3-1.336 0-5.012-.056-5.96-.312a1.295 1.295 0 01-.912-.909c-.296-1.113-.3-3.568-.3-3.593 0-.682.054-2.655.3-3.593.12-.44.477-.801.912-.922.944-.246 4.621-.3 5.96-.3 1.34 0 5.021.056 5.96.313.443.12.793.468.912.91v.003c.256.932.303 2.913.3 3.602z" fill="#BCBCBC"/><path d="M6.312 5.008v6.983l6.042-3.492-6.042-3.491zM7.64 7.309L9.7 8.5 7.64 9.69V7.31z" fill="#BCBCBC"/></svg>