<svg width="403" height="1006" viewBox="0 0 403 1006" fill="none" xmlns="http://www.w3.org/2000/svg">
<path d="M318.156 279.009L297.371 279.007C295.821 279.005 294.335 278.35 293.239 277.187C292.143 276.024 291.527 274.447 291.525 272.803L291.531 221.797C291.533 220.152 292.149 218.576 293.245 217.413C294.341 216.25 295.827 215.596 297.377 215.594L318.162 215.597C319.712 215.599 321.198 216.253 322.294 217.416C323.39 218.579 324.006 220.156 324.008 221.801L324.003 272.806C324.001 274.451 323.384 276.028 322.288 277.191C321.192 278.353 319.706 279.007 318.156 279.009V279.009Z" fill="#F7F7F7"/>
<path d="M384.991 1004.98L224.054 1004.96C219.626 1004.96 215.381 1003.08 212.251 999.745C209.12 996.409 207.359 991.885 207.355 987.167L207.426 294.173C207.431 289.455 209.193 284.932 212.324 281.596C215.456 278.26 219.701 276.384 224.129 276.379L385.244 276.397C389.672 276.403 393.917 278.28 397.047 281.617C400.178 284.954 401.939 289.477 401.943 294.195L401.872 987.189C401.867 991.907 402.59 998.739 399.459 1002.08C396.328 1005.41 389.418 1004.98 384.991 1004.98Z" fill="#4D4B51" fill-opacity="0.3"/>
<path d="M358.648 772.873L234.537 772.859C231.126 772.855 227.856 771.582 225.445 769.321C223.033 767.059 221.677 763.992 221.673 760.794L221.721 291.047C221.726 287.849 223.083 284.783 225.495 282.522C227.907 280.261 231.177 278.989 234.588 278.986L358.699 279C362.11 279.004 365.38 280.277 367.791 282.538C370.203 284.8 371.559 287.866 371.563 291.065L371.515 760.812C371.511 764.01 370.154 767.076 367.741 769.337C365.329 771.598 362.059 772.87 358.648 772.873Z" fill="#F2F2F2"/>
<path d="M300.064 215.595L309.165 215.596L308.844 169.611L308.844 169.593L307.96 0.998953C307.046 2.87989 305.707 3.85226 304.636 3.85213C303.565 3.85201 303.055 2.88122 302.141 1.00007L300.394 169.592L300.394 169.61L300.064 215.595Z" fill="#BCBCBC" fill-opacity="0.43"/>
<path d="M102.727 351.88L102.661 1001.97C102.66 1003.62 104.003 1004.97 105.66 1004.97L238.86 1004.98C240.517 1004.98 241.86 1003.64 241.861 1001.98L241.928 346.414L241.944 185.132L241.945 176.918C241.946 174.225 238.673 172.896 236.795 174.826L103.581 311.739C103.036 312.299 102.731 313.05 102.731 313.831L102.73 326.6L102.727 351.88Z" fill="#E1E1E1" fill-opacity="0.5"/>
<path d="M175.779 637.028L175.741 1001.97C175.741 1003.63 174.398 1004.97 172.741 1004.97L39.5407 1004.96C37.8839 1004.96 36.5409 1003.62 36.541 1001.96L36.5788 633.924L36.5882 543.059L36.5885 539.473C36.5888 537.162 39.0925 535.719 41.0924 536.878L174.284 614.039C175.211 614.575 175.781 615.564 175.781 616.635L175.78 622.786L175.779 637.028Z" fill="#E1E1E1" fill-opacity="0.3"/>
<path d="M154.874 859.851L154.859 1001.97C154.859 1003.63 153.516 1004.97 151.859 1004.97L2.99909 1004.95C1.34224 1004.95 -0.00076885 1003.61 -0.00059868 1001.95L0.0141231 858.615L0.0178039 822.777L0.0179295 821.555C0.0180661 820.224 0.894858 819.052 2.17156 818.677L151.036 774.903C152.958 774.338 154.883 775.778 154.882 777.781L154.875 854.233L154.874 859.851Z" fill="#E1E1E1" fill-opacity="0.25"/>
<path d="M157.524 475.332L176.664 475.334L176.668 433.884L157.528 433.882L157.524 475.332Z" fill="white"/>
<path d="M157.518 534.283L176.658 534.285L176.663 491.914L157.523 491.912L157.518 534.283Z" fill="white"/>
<path d="M157.512 601.523L176.652 601.525L176.657 559.154L157.517 559.152L157.512 601.523Z" fill="white"/>
<path d="M157.505 667.845L176.645 667.848L176.649 625.476L157.509 625.474L157.505 667.845Z" fill="white"/>
<path d="M306.049 279.008L286.544 279.005C285.089 279.003 283.695 278.349 282.667 277.186C281.638 276.023 281.06 274.446 281.059 272.801L281.064 221.795C281.066 220.151 281.644 218.574 282.673 217.411C283.701 216.248 285.096 215.594 286.55 215.592L306.056 215.595C307.51 215.597 308.904 216.251 309.933 217.414C310.961 218.577 311.539 220.154 311.541 221.799L311.536 272.805C311.534 274.45 310.955 276.026 309.927 277.189C308.898 278.352 307.503 279.006 306.049 279.008Z" fill="#E4E4E4" fill-opacity="0.78"/>
<path d="M264.96 383.23L228.456 383.226C227.183 383.225 225.962 382.846 225.062 382.173C224.161 381.5 223.655 380.587 223.654 379.636L223.658 337.996C223.659 337.044 224.166 336.132 225.066 335.459C225.967 334.786 227.188 334.408 228.461 334.407L264.965 334.411C266.238 334.412 267.459 334.791 268.36 335.464C269.26 336.137 269.766 337.049 269.768 338.001L269.764 379.641C269.762 380.593 269.255 381.505 268.355 382.178C267.454 382.851 266.233 383.229 264.96 383.23V383.23Z" fill="white"/>
<path d="M330.483 383.24L296.046 383.236C294.844 383.234 293.693 382.856 292.843 382.183C291.994 381.51 291.516 380.597 291.515 379.645L291.519 338.006C291.521 337.054 291.999 336.142 292.848 335.469C293.698 334.796 294.849 334.417 296.051 334.417L330.488 334.421C331.69 334.422 332.841 334.8 333.691 335.473C334.54 336.146 335.018 337.059 335.019 338.011L335.015 379.65C335.013 380.602 334.535 381.515 333.686 382.187C332.836 382.86 331.685 383.239 330.483 383.24V383.24Z" fill="white"/>
<path d="M264.954 457.84L228.451 457.836C227.177 457.835 225.956 457.463 225.056 456.803C224.156 456.143 223.649 455.247 223.648 454.314L223.652 413.459C223.654 412.526 224.16 411.631 225.061 410.97C225.961 410.31 227.182 409.939 228.455 409.938L264.959 409.942C266.233 409.943 267.453 410.315 268.354 410.975C269.254 411.636 269.761 412.531 269.762 413.465L269.758 454.319C269.756 455.253 269.25 456.148 268.349 456.808C267.449 457.468 266.228 457.839 264.954 457.84V457.84Z" fill="white"/>
<path d="M330.476 457.852L296.038 457.848C294.837 457.846 293.685 457.475 292.836 456.815C291.986 456.154 291.508 455.259 291.507 454.325L291.511 413.471C291.513 412.537 291.991 411.642 292.84 410.982C293.69 410.322 294.842 409.951 296.043 409.95L330.48 409.954C331.682 409.955 332.834 410.326 333.683 410.987C334.532 411.647 335.01 412.542 335.011 413.476L335.007 454.33C335.006 455.264 334.528 456.159 333.678 456.819C332.829 457.479 331.677 457.851 330.476 457.852V457.852Z" fill="white"/>
<path d="M264.944 534.295L228.441 534.29C227.167 534.289 225.946 533.91 225.046 533.237C224.146 532.564 223.639 531.652 223.638 530.7L223.642 489.06C223.644 488.109 224.15 487.196 225.051 486.523C225.951 485.851 227.172 485.472 228.446 485.471L264.949 485.475C266.223 485.477 267.444 485.855 268.344 486.528C269.244 487.201 269.751 488.114 269.752 489.066L269.748 530.705C269.746 531.657 269.24 532.569 268.339 533.242C267.439 533.915 266.218 534.294 264.944 534.295V534.295Z" fill="white"/>
<path d="M330.468 534.304L296.03 534.3C294.829 534.299 293.677 533.92 292.828 533.247C291.978 532.574 291.501 531.662 291.499 530.71L291.504 489.07C291.505 488.118 291.983 487.206 292.832 486.533C293.682 485.86 294.834 485.482 296.035 485.481L330.473 485.485C331.674 485.486 332.826 485.865 333.675 486.538C334.525 487.211 335.002 488.123 335.004 489.075L334.999 530.715C334.998 531.667 334.52 532.579 333.67 533.252C332.821 533.925 331.669 534.303 330.468 534.304V534.304Z" fill="white"/>
<path d="M264.937 609.826L228.433 609.822C227.159 609.82 225.939 609.442 225.038 608.769C224.138 608.096 223.631 607.183 223.63 606.231L223.634 564.592C223.636 563.64 224.143 562.728 225.043 562.055C225.944 561.382 227.164 561.003 228.438 561.003L264.942 561.007C266.215 561.008 267.436 561.387 268.336 562.06C269.237 562.733 269.743 563.645 269.744 564.597L269.74 606.237C269.739 607.188 269.232 608.101 268.331 608.774C267.431 609.446 266.21 609.825 264.937 609.826V609.826Z" fill="white"/>
<path d="M330.46 609.835L296.022 609.831C294.821 609.83 293.669 609.451 292.82 608.778C291.97 608.105 291.493 607.193 291.491 606.241L291.496 564.601C291.497 563.65 291.975 562.737 292.825 562.064C293.674 561.392 294.826 561.013 296.027 561.012L330.465 561.016C331.666 561.017 332.818 561.396 333.667 562.069C334.517 562.742 334.994 563.655 334.996 564.606L334.991 606.246C334.99 607.198 334.512 608.11 333.663 608.783C332.813 609.456 331.661 609.834 330.46 609.835V609.835Z" fill="white"/>
<path d="M264.931 685.356L228.427 685.352C227.154 685.35 225.933 684.979 225.032 684.318C224.132 683.658 223.626 682.763 223.624 681.829L223.629 640.975C223.63 640.041 224.137 639.146 225.037 638.486C225.938 637.826 227.159 637.455 228.432 637.454L264.936 637.458C266.209 637.459 267.43 637.831 268.33 638.491C269.231 639.151 269.737 640.047 269.739 640.98L269.734 681.834C269.733 682.768 269.226 683.663 268.326 684.323C267.425 684.984 266.204 685.355 264.931 685.356V685.356Z" fill="white"/>
<path d="M330.452 685.367L296.015 685.363C294.813 685.362 293.662 684.991 292.812 684.33C291.963 683.67 291.485 682.775 291.484 681.841L291.488 640.987C291.489 640.053 291.967 639.158 292.817 638.498C293.666 637.838 294.818 637.466 296.02 637.465L330.457 637.469C331.658 637.471 332.81 637.842 333.659 638.502C334.509 639.163 334.987 640.058 334.988 640.992L334.984 681.846C334.982 682.78 334.504 683.675 333.655 684.335C332.805 684.995 331.653 685.366 330.452 685.367V685.367Z" fill="white"/>
<path d="M387.761 570.812C388.982 570.401 389.803 569.257 389.804 567.97L389.805 557.05C389.805 556.039 389.295 555.095 388.449 554.541L335.805 520.056C335.316 519.736 334.745 519.566 334.161 519.566L166.609 519.547C164.952 519.546 163.608 520.889 163.608 522.546L163.605 554.73C163.605 555.892 164.276 556.95 165.328 557.445L273.586 608.393C274.287 608.723 275.088 608.769 275.821 608.522L387.761 570.812Z" fill="#E4BF80" fill-opacity="0.5"/>
<path d="M163.607 539.068L163.607 534.319L163.608 525.259L163.608 522.545C163.608 520.888 164.952 519.545 166.609 519.545L202.687 519.55C203.467 519.55 204.216 519.854 204.776 520.397L242.263 556.786C242.431 556.948 242.617 557.091 242.818 557.211L256.408 565.303C257.178 565.762 257.703 566.54 257.839 567.426L280.994 718.58C281.024 718.77 281.034 718.962 281.027 719.153L269.83 1002.1C269.766 1003.71 268.442 1004.98 266.832 1004.98L166.559 1004.97C164.902 1004.97 163.559 1003.63 163.559 1001.97L163.605 558.52L163.607 539.068Z" fill="#4D4B51" fill-opacity="0.3"/>
<path d="M127.075 474.408L146.215 474.41L146.219 432.039L127.079 432.037L127.075 474.408Z" fill="white"/>
<path d="M157.53 417.301L176.67 417.303L176.674 374.931L157.534 374.929L157.53 417.301Z" fill="white"/>
<path d="M127.081 416.377L146.221 416.379L146.225 374.008L127.085 374.005L127.081 416.377Z" fill="white"/>
<path d="M157.536 359.271L176.676 359.273L176.685 269.004L157.543 292.297L157.536 359.271Z" fill="white"/>
<path d="M127.087 358.345L146.227 358.348L146.233 299.396L127.091 318.259L127.087 358.345Z" fill="white"/>
<path d="M127.069 532.435L146.209 532.438L146.213 490.987L127.073 490.985L127.069 532.435Z" fill="white"/>
<path d="M127.055 648.498L146.195 648.5L146.2 606.129L127.06 606.127L127.055 648.498Z" fill="white"/>
<path d="M127.063 590.467L146.203 590.469L146.207 549.019L127.067 549.016L127.063 590.467Z" fill="white"/>
<path d="M127.038 826.273L146.178 826.275L146.182 783.904L127.042 783.902L127.038 826.273Z" fill="white"/>
<path d="M127.044 767.322L146.184 767.324L146.188 724.953L127.048 724.951L127.044 767.322Z" fill="white"/>
<path d="M127.032 884.304L146.172 884.307L146.176 841.935L127.036 841.933L127.032 884.304Z" fill="white"/>
<path d="M127.02 994.836L146.16 994.838L146.17 899.963L127.03 899.961L127.02 994.836Z" fill="white"/>
<path d="M127.051 707.449L146.191 707.451L146.196 665.08L127.056 665.078L127.051 707.449Z" fill="white"/>
<path d="M244.516 558.242L389.115 567.565L401.94 1005L244.47 1004.98L244.516 558.242Z" fill="#F7F7F7" fill-opacity="0.9"/>
<path d="M23.3365 975.986L397.67 988.636L402.001 1005.03L19.0008 1004.99L23.3365 975.986Z" fill="#F7F7F7" fill-opacity="0.5"/>
<path d="M127.501 992.5L380.001 976.002L402.001 986.5L402.001 1005.03L0.43236 1004.99L127.501 992.5Z" fill="#CFCFCF"/>
<path d="M0.431493 1004.99L0.500003 1005L0.499913 1004.99L402 1005.03L402 981.407L380.001 968.023L0.43148 995L0.499913 1004.99L0.431493 1004.99Z" fill="#CFCFCF" fill-opacity="0.2"/>
<path d="M191.001 995.37L191.004 969.999L218.004 970.002L218.001 995.373L193.249 995.37L191.001 995.37Z" fill="#F7F7F7" fill-opacity="0.5"/>
<path d="M207.973 572.053L207.974 564.684L218.414 564.686L218.413 572.054L208.843 572.053L207.973 572.053Z" fill="#F7F7F7"/>
<path d="M208.843 578.501L218.414 578.502L218.413 587.713L207.973 587.712L207.974 578.501L208.843 578.501Z" fill="#F7F7F7"/>
<path d="M190.575 564.684L200.145 564.686L200.144 572.054L190.574 572.053L190.575 564.684Z" fill="#F7F7F7"/>
<path d="M190.575 578.501L200.145 578.502L200.144 587.713L190.574 587.712L190.575 578.501Z" fill="#F7F7F7"/>
<path d="M207.969 619.029L207.97 610.739L218.41 610.74L218.409 619.03L208.839 619.029L207.969 619.029Z" fill="#F7F7F7"/>
<path d="M208.84 625.477L218.41 625.479L218.409 633.769L207.969 633.767L207.97 625.477L208.84 625.477Z" fill="#F7F7F7"/>
<path d="M190.571 610.739L200.141 610.74L200.14 619.03L190.57 619.029L190.571 610.739Z" fill="#F7F7F7"/>
<path d="M190.569 625.477L200.139 625.479L200.138 633.769L190.568 633.767L190.569 625.477Z" fill="#F7F7F7"/>
<path d="M207.965 665.087L207.966 655.876L218.406 655.877L218.405 665.088L208.835 665.087L207.965 665.087Z" fill="#F7F7F7"/>
<path d="M208.834 671.534L218.404 671.535L218.404 678.904L207.964 678.903L207.964 671.534L208.834 671.534Z" fill="#F7F7F7"/>
<path d="M190.567 655.876L200.137 655.877L200.136 665.088L190.566 665.087L190.567 655.876Z" fill="#F7F7F7"/>
<path d="M190.563 671.534L200.133 671.535L200.132 678.904L190.562 678.903L190.563 671.534Z" fill="#F7F7F7"/>
<path d="M207.959 712.063L207.96 701.93L218.4 701.932L218.399 712.064L208.829 712.063L207.959 712.063Z" fill="#F7F7F7"/>
<path d="M208.828 717.589L218.398 717.59L218.397 727.722L207.957 727.721L207.958 717.589L208.828 717.589Z" fill="#F7F7F7"/>
<path d="M190.561 701.931L200.131 701.932L200.13 712.064L190.56 712.063L190.561 701.931Z" fill="#F7F7F7"/>
<path d="M190.559 717.589L200.129 717.59L200.128 727.722L190.558 727.721L190.559 717.589Z" fill="#F7F7F7"/>
<path d="M207.956 758.118L207.956 750.749L218.396 750.75L218.396 758.119L208.825 758.118L207.956 758.118Z" fill="#F7F7F7"/>
<path d="M208.824 764.567L218.395 764.568L218.394 773.78L207.954 773.778L207.955 764.567L208.824 764.567Z" fill="#F7F7F7"/>
<path d="M190.555 750.749L200.125 750.75L200.124 758.119L190.554 758.118L190.555 750.749Z" fill="#F7F7F7"/>
<path d="M190.555 764.567L200.125 764.568L200.124 773.78L190.554 773.778L190.555 764.567Z" fill="#F7F7F7"/>
<path d="M207.95 805.095L207.951 796.805L218.391 796.807L218.39 805.097L208.819 805.096L207.95 805.095Z" fill="#F7F7F7"/>
<path d="M208.82 811.542L218.391 811.543L218.39 819.833L207.95 819.832L207.951 811.542L208.82 811.542Z" fill="#F7F7F7"/>
<path d="M190.551 796.806L200.121 796.807L200.12 805.097L190.55 805.096L190.551 796.806Z" fill="#F7F7F7"/>
<path d="M190.551 811.542L200.121 811.543L200.12 819.833L190.55 819.832L190.551 811.542Z" fill="#F7F7F7"/>
<path d="M207.946 851.151L207.947 841.94L218.387 841.941L218.386 851.153L208.815 851.151L207.946 851.151Z" fill="#F7F7F7"/>
<path d="M208.814 858.52L218.385 858.521L218.384 864.969L207.944 864.968L207.945 858.52L208.814 858.52Z" fill="#F7F7F7"/>
<path d="M190.547 841.94L200.117 841.941L200.116 851.153L190.546 851.151L190.547 841.94Z" fill="#F7F7F7"/>
<path d="M190.545 858.52L200.115 858.521L200.115 864.969L190.545 864.968L190.545 858.52Z" fill="#F7F7F7"/>
<path d="M207.942 898.129L207.943 887.997L218.383 887.998L218.382 898.13L208.811 898.129L207.942 898.129Z" fill="#F7F7F7"/>
<path d="M208.808 903.655L218.379 903.656L218.378 913.789L207.938 913.787L207.939 903.655L208.808 903.655Z" fill="#F7F7F7"/>
<path d="M190.541 887.997L200.111 887.998L200.11 898.13L190.54 898.129L190.541 887.997Z" fill="#F7F7F7"/>
<path d="M190.539 903.655L200.109 903.656L200.108 913.789L190.538 913.787L190.539 903.655Z" fill="#F7F7F7"/>
<path d="M207.936 944.183L207.937 935.893L218.377 935.895L218.376 944.185L208.805 944.183L207.936 944.183Z" fill="#F7F7F7"/>
<path d="M208.804 951.552L218.375 951.553L218.374 958.922L207.934 958.92L207.935 951.552L208.804 951.552Z" fill="#F7F7F7"/>
<path d="M190.535 935.893L200.105 935.895L200.105 944.185L190.535 944.183L190.535 935.893Z" fill="#F7F7F7"/>
<path d="M190.535 951.552L200.105 951.553L200.105 958.922L190.535 958.921L190.535 951.552Z" fill="#F7F7F7"/>
<path d="M193.141 994.843L193.143 973.657L216.633 973.66L216.631 994.846L195.097 994.843L193.141 994.843Z" fill="#F7F7F7" fill-opacity="0.5"/>
<path d="M262.303 582.329L357.094 588.446C357.875 588.497 358.484 589.145 358.484 589.929C358.483 590.749 357.818 591.414 356.998 591.414L262.173 591.403C261.069 591.403 260.174 590.508 260.174 589.403L260.174 584.325C260.174 583.17 261.15 582.255 262.303 582.329Z" fill="#E3D0AA" fill-opacity="0.5"/>
<path d="M262.17 603.378L356.48 603.388C357.585 603.389 358.48 604.284 358.48 605.389L358.48 610.6C358.48 611.704 357.584 612.6 356.48 612.6L262.17 612.589C261.065 612.589 260.17 611.693 260.17 610.588L260.17 605.377C260.17 604.273 261.066 603.377 262.17 603.378Z" fill="#E3D0AA" fill-opacity="0.5"/>
<path d="M262.169 625.485L356.479 625.496C357.583 625.496 358.478 626.392 358.478 627.496L358.478 632.707C358.478 633.812 357.582 634.707 356.478 634.707L262.168 634.696C261.063 634.696 260.168 633.8 260.168 632.696L260.168 627.485C260.168 626.38 261.064 625.485 262.169 625.485Z" fill="#E3D0AA" fill-opacity="0.5"/>
<path d="M262.167 646.671L356.477 646.681C357.581 646.682 358.476 647.577 358.476 648.682L358.476 653.893C358.476 654.997 357.58 655.893 356.476 655.893L262.166 655.882C261.061 655.882 260.166 654.986 260.166 653.881L260.166 648.67C260.166 647.566 261.062 646.67 262.167 646.671Z" fill="#E3D0AA" fill-opacity="0.5"/>
<path d="M262.147 839.184L356.457 839.195C357.562 839.195 358.457 840.091 358.457 841.195L358.456 846.406C358.456 847.511 357.561 848.406 356.456 848.406L262.146 848.395C261.042 848.395 260.146 847.5 260.146 846.395L260.147 841.184C260.147 840.079 261.042 839.184 262.147 839.184Z" fill="#E3D0AA" fill-opacity="0.5"/>
<path d="M262.145 859.45L356.455 859.461C357.56 859.461 358.455 860.356 358.455 861.461L358.454 867.593C358.454 868.698 357.559 869.593 356.454 869.593L262.144 869.582C261.039 869.582 260.144 868.686 260.144 867.582L260.145 861.45C260.145 860.345 261.041 859.45 262.145 859.45Z" fill="#E3D0AA" fill-opacity="0.5"/>
<path d="M262.143 881.555L356.453 881.566C357.558 881.566 358.453 882.462 358.453 883.566L358.452 889.699C358.452 890.803 357.557 891.699 356.452 891.698L262.142 891.688C261.038 891.687 260.142 890.792 260.142 889.687L260.143 883.555C260.143 882.451 261.039 881.555 262.143 881.555Z" fill="#E3D0AA" fill-opacity="0.5"/>
<path d="M262.141 902.741L356.451 902.752C357.556 902.752 358.451 903.647 358.451 904.752L358.451 909.042C358.45 910.147 357.555 911.042 356.45 911.042L262.14 911.031C261.036 911.031 260.14 910.135 260.141 909.031L260.141 904.741C260.141 903.636 261.037 902.741 262.141 902.741Z" fill="#E3D0AA" fill-opacity="0.5"/>
<path d="M262.165 667.856L356.475 667.867C357.579 667.867 358.475 668.763 358.474 669.867L358.474 675.078C358.474 676.183 357.578 677.078 356.474 677.078L262.164 677.067C261.059 677.067 260.164 676.172 260.164 675.067L260.164 669.856C260.165 668.751 261.06 667.856 262.165 667.856Z" fill="#E3D0AA" fill-opacity="0.5"/>
<path d="M262.163 689.964L356.473 689.974C357.577 689.975 358.473 690.87 358.472 691.975L358.472 697.186C358.472 698.29 357.576 699.186 356.472 699.186L262.162 699.175C261.057 699.175 260.162 698.279 260.162 697.174L260.162 691.963C260.163 690.859 261.058 689.963 262.163 689.964Z" fill="#E3D0AA" fill-opacity="0.5"/>
<path d="M262.161 710.229L356.471 710.24C357.575 710.24 358.471 711.136 358.47 712.24L358.47 718.372C358.47 719.477 357.574 720.372 356.47 720.372L262.16 720.361C261.055 720.361 260.16 719.466 260.16 718.361L260.161 712.229C260.161 711.124 261.056 710.229 262.161 710.229Z" fill="#E3D0AA" fill-opacity="0.5"/>
<path d="M262.159 731.415L356.469 731.426C357.573 731.426 358.469 732.321 358.469 733.426L358.468 738.637C358.468 739.741 357.572 740.637 356.468 740.637L262.158 740.626C261.053 740.626 260.158 739.73 260.158 738.626L260.159 733.414C260.159 732.31 261.054 731.415 262.159 731.415Z" fill="#E3D0AA" fill-opacity="0.5"/>
<path d="M262.155 753.52L356.465 753.531C357.569 753.531 358.465 754.427 358.465 755.531L358.464 760.742C358.464 761.847 357.568 762.742 356.464 762.742L262.154 762.731C261.049 762.731 260.154 761.836 260.154 760.731L260.155 755.52C260.155 754.415 261.05 753.52 262.155 753.52Z" fill="#E3D0AA" fill-opacity="0.5"/>
<path d="M262.153 774.706L356.463 774.717C357.567 774.717 358.463 775.612 358.463 776.717L358.462 781.928C358.462 783.033 357.567 783.928 356.462 783.928L262.152 783.917C261.047 783.917 260.152 783.021 260.152 781.917L260.153 776.705C260.153 775.601 261.048 774.706 262.153 774.706Z" fill="#E3D0AA" fill-opacity="0.5"/>
<path d="M262.151 795.891L356.461 795.902C357.566 795.902 358.461 796.798 358.461 797.902L358.46 803.113C358.46 804.218 357.565 805.113 356.46 805.113L262.15 805.102C261.045 805.102 260.15 804.207 260.15 803.102L260.151 797.891C260.151 796.786 261.046 795.891 262.151 795.891Z" fill="#E3D0AA" fill-opacity="0.5"/>
<path d="M262.149 817.999L356.459 818.01C357.564 818.01 358.459 818.905 358.459 820.01L358.458 825.221C358.458 826.325 357.563 827.221 356.458 827.221L262.148 827.21C261.043 827.21 260.148 826.314 260.148 825.21L260.149 819.998C260.149 818.894 261.044 817.999 262.149 817.999Z" fill="#E3D0AA" fill-opacity="0.5"/>
<path d="M315.207 939.593L356.447 939.597C357.552 939.598 358.447 940.493 358.447 941.598L358.442 990.101C358.442 991.206 357.546 992.101 356.442 992.101L315.202 992.096C314.097 992.096 313.202 991.201 313.202 990.096L313.207 941.592C313.207 940.488 314.103 939.593 315.207 939.593Z" fill="#E3D0AA" fill-opacity="0.5"/>
<path d="M315.826 940.442L340.535 948.478C341.359 948.746 341.917 949.514 341.917 950.381L341.913 990.097C341.913 991.202 341.017 992.097 339.913 992.097L315.203 992.094C314.098 992.094 313.203 991.199 313.203 990.094L313.208 942.344C313.208 940.985 314.534 940.022 315.826 940.442Z" fill="#E3D0AA" fill-opacity="0.5"/>
<path d="M260.931 964.455C260.491 964.455 260.134 964.099 260.134 963.658L260.135 956.323C260.135 955.219 261.031 954.323 262.135 954.323L267.705 954.324C268.81 954.324 269.705 955.22 269.705 956.324L269.704 962.456C269.704 963.561 268.809 964.456 267.704 964.456L260.931 964.455V964.455Z" fill="#E4D0A9" fill-opacity="0.5"/>
<path d="M260.934 939.585L267.707 939.586C268.812 939.586 269.707 940.481 269.707 941.586L269.706 945.876C269.706 946.981 268.811 947.876 267.706 947.876L262.136 947.875C261.032 947.875 260.136 946.979 260.136 945.875L260.137 940.382C260.137 939.942 260.494 939.585 260.934 939.585V939.585Z" fill="#E4D0A9" fill-opacity="0.5"/>
<path d="M276.924 954.323L284.234 954.324C285.339 954.324 286.234 955.22 286.234 956.324L286.234 962.456C286.233 963.561 285.338 964.456 284.233 964.456L276.923 964.455C275.819 964.455 274.923 963.56 274.924 962.455L274.924 956.323C274.924 955.218 275.82 954.323 276.924 954.323Z" fill="#E4D0A9" fill-opacity="0.5"/>
<path d="M276.926 939.585L284.236 939.586C285.341 939.586 286.236 940.481 286.236 941.586L286.236 945.876C286.236 946.981 285.34 947.876 284.235 947.876L276.925 947.875C275.821 947.875 274.926 946.979 274.926 945.875L274.926 941.585C274.926 940.48 275.822 939.585 276.926 939.585Z" fill="#E4D0A9" fill-opacity="0.5"/>
<path d="M146.879 785.229L146.883 743.374L156.617 840.593L146.856 1004.97L144.42 1004.97L146.879 785.229Z" fill="#606060" fill-opacity="0.5"/>
<path d="M124.431 799.452C124.258 832.519 150.216 859.435 150.216 859.435C150.216 859.435 176.456 832.74 176.63 799.674C176.803 766.607 150.845 739.69 150.845 739.69C150.845 739.69 124.605 766.385 124.431 799.452Z" fill="#E3D0AA" fill-opacity="0.9"/>
</svg>
